<?xml version="1.0" encoding="UTF-8"?>
<svg id="Layer_1" xmlns="http://www.w3.org/2000/svg" version="1.1" viewBox="0 0 300 214">
  <!-- Generator: Adobe Illustrator 29.0.0, SVG Export Plug-In . SVG Version: 2.1.0 Build 186)  -->
  <defs>
    <style>
      .st0 {
        fill: none;
        stroke: #351a55;
        stroke-linecap: round;
        stroke-linejoin: round;
        stroke-width: 3px;
      }
    </style>
  </defs>
  <g id="Layer_11" data-name="Layer_1">
    <g>
      <g>
        <line class="st0" x1="90.7" y1="80.5" x2="90.7" y2="97.2"/>
        <line class="st0" x1="90.7" y1="109.6" x2="90.7" y2="135.7"/>
        <line class="st0" x1="90.7" y1="52.5" x2="90.7" y2="68.1"/>
        <path class="st0" d="M90.7,68.1c1.4-1.2,3.3-2,5.3-2,4.5,0,8.1,3.6,8.1,8.1s-3.6,8.1-8.1,8.1-3.9-.8-5.3-2"/>
        <path class="st0" d="M90.7,109.6c-1.4,1.2-3.3,2-5.3,2-4.5,0-8.1-3.6-8.1-8.1s3.6-8.1,8.1-8.1,3.8.8,5.3,2"/>
      </g>
      <g>
        <g>
          <line class="st0" x1="76.4" y1="135.7" x2="104.9" y2="135.7"/>
          <path class="st0" d="M76.4,150.1c0,2.6,2.1,4.8,4.8,4.8h.3c2.3,0,4.1,1.2,5.4,2.9.9,1.1,2.3,1.8,3.8,1.8s2.9-.8,3.8-1.8c1.4-1.8,3.3-2.9,5.4-2.9h.3c2.6,0,4.8-2.1,4.8-4.8v-14.6c0-8.7,3.3-17.6,10.1-24.3,14.3-14.3,13.4-38.3-2.9-51.2-12.4-9.9-30.4-9.9-42.8,0-16.3,13.1-17.3,36.9-2.9,51.2,6.8,6.8,10.1,15.5,10.1,24.3v14.5"/>
        </g>
        <g>
          <line class="st0" x1="90.7" y1="27" x2="90.7" y2="40"/>
          <line class="st0" x1="120.3" y1="35" x2="113.8" y2="46.1"/>
          <line class="st0" x1="142" y1="56.7" x2="130.8" y2="63.2"/>
          <line class="st0" x1="149.9" y1="86.4" x2="137" y2="86.4"/>
          <line class="st0" x1="142" y1="115.9" x2="130.8" y2="109.4"/>
          <line class="st0" x1="39.3" y1="115.9" x2="50.6" y2="109.4"/>
          <line class="st0" x1="31.3" y1="86.4" x2="44.3" y2="86.4"/>
          <line class="st0" x1="39.3" y1="56.7" x2="50.6" y2="63.2"/>
          <line class="st0" x1="61" y1="35" x2="67.5" y2="46.1"/>
        </g>
      </g>
    </g>
  </g>
</svg>